<mxfile host="app.diagrams.net" agent="Mozilla/5.0 (Macintosh; Intel Mac OS X 10_15_7) AppleWebKit/537.36 (KHTML, like Gecko) Chrome/133.0.0.0 Safari/537.36" version="26.0.16">
  <diagram id="R2lEEEUBdFMjLlhIrx00" name="Page-1">
    <mxGraphModel dx="1054" dy="734" grid="1" gridSize="10" guides="1" tooltips="1" connect="1" arrows="1" fold="1" page="1" pageScale="1" pageWidth="850" pageHeight="1100" math="0" shadow="0" extFonts="Permanent Marker^https://fonts.googleapis.com/css?family=Permanent+Marker">
      <root>
        <mxCell id="0" />
        <mxCell id="1" parent="0" />
        <mxCell id="UlpgFMHiXkAELkj7wbDn-34" value="Text" style="text;html=1;align=center;verticalAlign=middle;resizable=0;points=[];autosize=1;strokeColor=none;fillColor=none;fontColor=#143642;labelBackgroundColor=none;" vertex="1" parent="1">
          <mxGeometry x="625" y="568" width="50" height="30" as="geometry" />
        </mxCell>
        <mxCell id="UlpgFMHiXkAELkj7wbDn-42" value="Franz Wagner" style="shape=table;startSize=30;container=1;collapsible=0;childLayout=tableLayout;fixedRows=1;rowLines=0;fontStyle=0;strokeColor=#0F8B8D;fontSize=16;fontColor=#FFFFFF;fillColor=#0000A8;labelBackgroundColor=none;" vertex="1" parent="1">
          <mxGeometry x="70" y="60" width="180" height="120" as="geometry" />
        </mxCell>
        <mxCell id="UlpgFMHiXkAELkj7wbDn-43" value="" style="shape=tableRow;horizontal=0;startSize=0;swimlaneHead=0;swimlaneBody=0;top=0;left=0;bottom=0;right=0;collapsible=0;dropTarget=0;fillColor=none;points=[[0,0.5],[1,0.5]];portConstraint=eastwest;strokeColor=#0F8B8D;fontSize=16;fontColor=#143642;labelBackgroundColor=none;" vertex="1" parent="UlpgFMHiXkAELkj7wbDn-42">
          <mxGeometry y="30" width="180" height="30" as="geometry" />
        </mxCell>
        <mxCell id="UlpgFMHiXkAELkj7wbDn-44" value="&lt;font style=&quot;color: rgb(0, 0, 0);&quot;&gt;PK&lt;/font&gt;" style="shape=partialRectangle;html=1;whiteSpace=wrap;connectable=0;fillColor=none;top=0;left=0;bottom=0;right=0;overflow=hidden;pointerEvents=1;strokeColor=#0F8B8D;fontSize=16;fontColor=#143642;labelBackgroundColor=none;" vertex="1" parent="UlpgFMHiXkAELkj7wbDn-43">
          <mxGeometry width="40" height="30" as="geometry">
            <mxRectangle width="40" height="30" as="alternateBounds" />
          </mxGeometry>
        </mxCell>
        <mxCell id="UlpgFMHiXkAELkj7wbDn-45" value="Player_ID" style="shape=partialRectangle;html=1;whiteSpace=wrap;connectable=0;fillColor=none;top=0;left=0;bottom=0;right=0;align=left;spacingLeft=6;overflow=hidden;strokeColor=#0F8B8D;fontSize=16;fontColor=#143642;labelBackgroundColor=none;" vertex="1" parent="UlpgFMHiXkAELkj7wbDn-43">
          <mxGeometry x="40" width="140" height="30" as="geometry">
            <mxRectangle width="140" height="30" as="alternateBounds" />
          </mxGeometry>
        </mxCell>
        <mxCell id="UlpgFMHiXkAELkj7wbDn-46" value="" style="shape=tableRow;horizontal=0;startSize=0;swimlaneHead=0;swimlaneBody=0;top=0;left=0;bottom=0;right=0;collapsible=0;dropTarget=0;fillColor=none;points=[[0,0.5],[1,0.5]];portConstraint=eastwest;strokeColor=#0F8B8D;fontSize=16;fontColor=#143642;labelBackgroundColor=none;" vertex="1" parent="UlpgFMHiXkAELkj7wbDn-42">
          <mxGeometry y="60" width="180" height="30" as="geometry" />
        </mxCell>
        <mxCell id="UlpgFMHiXkAELkj7wbDn-47" value="2" style="shape=partialRectangle;html=1;whiteSpace=wrap;connectable=0;fillColor=none;top=0;left=0;bottom=0;right=0;overflow=hidden;strokeColor=#0F8B8D;fontSize=16;fontColor=#143642;labelBackgroundColor=none;" vertex="1" parent="UlpgFMHiXkAELkj7wbDn-46">
          <mxGeometry width="40" height="30" as="geometry">
            <mxRectangle width="40" height="30" as="alternateBounds" />
          </mxGeometry>
        </mxCell>
        <mxCell id="UlpgFMHiXkAELkj7wbDn-48" value="Value 2" style="shape=partialRectangle;html=1;whiteSpace=wrap;connectable=0;fillColor=none;top=0;left=0;bottom=0;right=0;align=left;spacingLeft=6;overflow=hidden;strokeColor=#0F8B8D;fontSize=16;fontColor=#143642;labelBackgroundColor=none;" vertex="1" parent="UlpgFMHiXkAELkj7wbDn-46">
          <mxGeometry x="40" width="140" height="30" as="geometry">
            <mxRectangle width="140" height="30" as="alternateBounds" />
          </mxGeometry>
        </mxCell>
        <mxCell id="UlpgFMHiXkAELkj7wbDn-49" value="" style="shape=tableRow;horizontal=0;startSize=0;swimlaneHead=0;swimlaneBody=0;top=0;left=0;bottom=0;right=0;collapsible=0;dropTarget=0;fillColor=none;points=[[0,0.5],[1,0.5]];portConstraint=eastwest;strokeColor=#0F8B8D;fontSize=16;fontColor=#143642;labelBackgroundColor=none;" vertex="1" parent="UlpgFMHiXkAELkj7wbDn-42">
          <mxGeometry y="90" width="180" height="30" as="geometry" />
        </mxCell>
        <mxCell id="UlpgFMHiXkAELkj7wbDn-50" value="3" style="shape=partialRectangle;html=1;whiteSpace=wrap;connectable=0;fillColor=none;top=0;left=0;bottom=0;right=0;overflow=hidden;strokeColor=#0F8B8D;fontSize=16;fontColor=#143642;labelBackgroundColor=none;" vertex="1" parent="UlpgFMHiXkAELkj7wbDn-49">
          <mxGeometry width="40" height="30" as="geometry">
            <mxRectangle width="40" height="30" as="alternateBounds" />
          </mxGeometry>
        </mxCell>
        <mxCell id="UlpgFMHiXkAELkj7wbDn-51" value="Value 3" style="shape=partialRectangle;html=1;whiteSpace=wrap;connectable=0;fillColor=none;top=0;left=0;bottom=0;right=0;align=left;spacingLeft=6;overflow=hidden;strokeColor=#0F8B8D;fontSize=16;fontColor=#143642;labelBackgroundColor=none;" vertex="1" parent="UlpgFMHiXkAELkj7wbDn-49">
          <mxGeometry x="40" width="140" height="30" as="geometry">
            <mxRectangle width="140" height="30" as="alternateBounds" />
          </mxGeometry>
        </mxCell>
        <mxCell id="UlpgFMHiXkAELkj7wbDn-63" value="Jonathan Issac" style="shape=table;startSize=30;container=1;collapsible=0;childLayout=tableLayout;fixedRows=1;rowLines=0;fontStyle=0;strokeColor=#0F8B8D;fontSize=16;fontColor=#FFFFFF;fillColor=#0000A8;labelBackgroundColor=none;" vertex="1" parent="1">
          <mxGeometry x="310" y="60" width="180" height="120" as="geometry" />
        </mxCell>
        <mxCell id="UlpgFMHiXkAELkj7wbDn-64" value="" style="shape=tableRow;horizontal=0;startSize=0;swimlaneHead=0;swimlaneBody=0;top=0;left=0;bottom=0;right=0;collapsible=0;dropTarget=0;fillColor=none;points=[[0,0.5],[1,0.5]];portConstraint=eastwest;strokeColor=#0F8B8D;fontSize=16;fontColor=#143642;labelBackgroundColor=none;" vertex="1" parent="UlpgFMHiXkAELkj7wbDn-63">
          <mxGeometry y="30" width="180" height="30" as="geometry" />
        </mxCell>
        <mxCell id="UlpgFMHiXkAELkj7wbDn-65" value="1" style="shape=partialRectangle;html=1;whiteSpace=wrap;connectable=0;fillColor=none;top=0;left=0;bottom=0;right=0;overflow=hidden;pointerEvents=1;strokeColor=#0F8B8D;fontSize=16;fontColor=#143642;labelBackgroundColor=none;" vertex="1" parent="UlpgFMHiXkAELkj7wbDn-64">
          <mxGeometry width="40" height="30" as="geometry">
            <mxRectangle width="40" height="30" as="alternateBounds" />
          </mxGeometry>
        </mxCell>
        <mxCell id="UlpgFMHiXkAELkj7wbDn-66" value="Value 1" style="shape=partialRectangle;html=1;whiteSpace=wrap;connectable=0;fillColor=none;top=0;left=0;bottom=0;right=0;align=left;spacingLeft=6;overflow=hidden;strokeColor=#0F8B8D;fontSize=16;fontColor=#143642;labelBackgroundColor=none;" vertex="1" parent="UlpgFMHiXkAELkj7wbDn-64">
          <mxGeometry x="40" width="140" height="30" as="geometry">
            <mxRectangle width="140" height="30" as="alternateBounds" />
          </mxGeometry>
        </mxCell>
        <mxCell id="UlpgFMHiXkAELkj7wbDn-67" value="" style="shape=tableRow;horizontal=0;startSize=0;swimlaneHead=0;swimlaneBody=0;top=0;left=0;bottom=0;right=0;collapsible=0;dropTarget=0;fillColor=none;points=[[0,0.5],[1,0.5]];portConstraint=eastwest;strokeColor=#0F8B8D;fontSize=16;fontColor=#143642;labelBackgroundColor=none;" vertex="1" parent="UlpgFMHiXkAELkj7wbDn-63">
          <mxGeometry y="60" width="180" height="30" as="geometry" />
        </mxCell>
        <mxCell id="UlpgFMHiXkAELkj7wbDn-68" value="2" style="shape=partialRectangle;html=1;whiteSpace=wrap;connectable=0;fillColor=none;top=0;left=0;bottom=0;right=0;overflow=hidden;strokeColor=#0F8B8D;fontSize=16;fontColor=#143642;labelBackgroundColor=none;" vertex="1" parent="UlpgFMHiXkAELkj7wbDn-67">
          <mxGeometry width="40" height="30" as="geometry">
            <mxRectangle width="40" height="30" as="alternateBounds" />
          </mxGeometry>
        </mxCell>
        <mxCell id="UlpgFMHiXkAELkj7wbDn-69" value="Value 2" style="shape=partialRectangle;html=1;whiteSpace=wrap;connectable=0;fillColor=none;top=0;left=0;bottom=0;right=0;align=left;spacingLeft=6;overflow=hidden;strokeColor=#0F8B8D;fontSize=16;fontColor=#143642;labelBackgroundColor=none;" vertex="1" parent="UlpgFMHiXkAELkj7wbDn-67">
          <mxGeometry x="40" width="140" height="30" as="geometry">
            <mxRectangle width="140" height="30" as="alternateBounds" />
          </mxGeometry>
        </mxCell>
        <mxCell id="UlpgFMHiXkAELkj7wbDn-70" value="" style="shape=tableRow;horizontal=0;startSize=0;swimlaneHead=0;swimlaneBody=0;top=0;left=0;bottom=0;right=0;collapsible=0;dropTarget=0;fillColor=none;points=[[0,0.5],[1,0.5]];portConstraint=eastwest;strokeColor=#0F8B8D;fontSize=16;fontColor=#143642;labelBackgroundColor=none;" vertex="1" parent="UlpgFMHiXkAELkj7wbDn-63">
          <mxGeometry y="90" width="180" height="30" as="geometry" />
        </mxCell>
        <mxCell id="UlpgFMHiXkAELkj7wbDn-71" value="3" style="shape=partialRectangle;html=1;whiteSpace=wrap;connectable=0;fillColor=none;top=0;left=0;bottom=0;right=0;overflow=hidden;strokeColor=#0F8B8D;fontSize=16;fontColor=#143642;labelBackgroundColor=none;" vertex="1" parent="UlpgFMHiXkAELkj7wbDn-70">
          <mxGeometry width="40" height="30" as="geometry">
            <mxRectangle width="40" height="30" as="alternateBounds" />
          </mxGeometry>
        </mxCell>
        <mxCell id="UlpgFMHiXkAELkj7wbDn-72" value="Value 3" style="shape=partialRectangle;html=1;whiteSpace=wrap;connectable=0;fillColor=none;top=0;left=0;bottom=0;right=0;align=left;spacingLeft=6;overflow=hidden;strokeColor=#0F8B8D;fontSize=16;fontColor=#143642;labelBackgroundColor=none;" vertex="1" parent="UlpgFMHiXkAELkj7wbDn-70">
          <mxGeometry x="40" width="140" height="30" as="geometry">
            <mxRectangle width="140" height="30" as="alternateBounds" />
          </mxGeometry>
        </mxCell>
        <mxCell id="UlpgFMHiXkAELkj7wbDn-73" value="Tristian Da Silva" style="shape=table;startSize=30;container=1;collapsible=0;childLayout=tableLayout;fixedRows=1;rowLines=0;fontStyle=0;strokeColor=#0F8B8D;fontSize=16;fontColor=#FFFFFF;fillColor=#0000A8;labelBackgroundColor=none;" vertex="1" parent="1">
          <mxGeometry x="70" y="260" width="180" height="120" as="geometry" />
        </mxCell>
        <mxCell id="UlpgFMHiXkAELkj7wbDn-74" value="" style="shape=tableRow;horizontal=0;startSize=0;swimlaneHead=0;swimlaneBody=0;top=0;left=0;bottom=0;right=0;collapsible=0;dropTarget=0;fillColor=none;points=[[0,0.5],[1,0.5]];portConstraint=eastwest;strokeColor=#0F8B8D;fontSize=16;fontColor=#143642;labelBackgroundColor=none;" vertex="1" parent="UlpgFMHiXkAELkj7wbDn-73">
          <mxGeometry y="30" width="180" height="30" as="geometry" />
        </mxCell>
        <mxCell id="UlpgFMHiXkAELkj7wbDn-75" value="1" style="shape=partialRectangle;html=1;whiteSpace=wrap;connectable=0;fillColor=none;top=0;left=0;bottom=0;right=0;overflow=hidden;pointerEvents=1;strokeColor=#0F8B8D;fontSize=16;fontColor=#143642;labelBackgroundColor=none;" vertex="1" parent="UlpgFMHiXkAELkj7wbDn-74">
          <mxGeometry width="40" height="30" as="geometry">
            <mxRectangle width="40" height="30" as="alternateBounds" />
          </mxGeometry>
        </mxCell>
        <mxCell id="UlpgFMHiXkAELkj7wbDn-76" value="Value 1" style="shape=partialRectangle;html=1;whiteSpace=wrap;connectable=0;fillColor=none;top=0;left=0;bottom=0;right=0;align=left;spacingLeft=6;overflow=hidden;strokeColor=#0F8B8D;fontSize=16;fontColor=#143642;labelBackgroundColor=none;" vertex="1" parent="UlpgFMHiXkAELkj7wbDn-74">
          <mxGeometry x="40" width="140" height="30" as="geometry">
            <mxRectangle width="140" height="30" as="alternateBounds" />
          </mxGeometry>
        </mxCell>
        <mxCell id="UlpgFMHiXkAELkj7wbDn-77" value="" style="shape=tableRow;horizontal=0;startSize=0;swimlaneHead=0;swimlaneBody=0;top=0;left=0;bottom=0;right=0;collapsible=0;dropTarget=0;fillColor=none;points=[[0,0.5],[1,0.5]];portConstraint=eastwest;strokeColor=#0F8B8D;fontSize=16;fontColor=#143642;labelBackgroundColor=none;" vertex="1" parent="UlpgFMHiXkAELkj7wbDn-73">
          <mxGeometry y="60" width="180" height="30" as="geometry" />
        </mxCell>
        <mxCell id="UlpgFMHiXkAELkj7wbDn-78" value="2" style="shape=partialRectangle;html=1;whiteSpace=wrap;connectable=0;fillColor=none;top=0;left=0;bottom=0;right=0;overflow=hidden;strokeColor=#0F8B8D;fontSize=16;fontColor=#143642;labelBackgroundColor=none;" vertex="1" parent="UlpgFMHiXkAELkj7wbDn-77">
          <mxGeometry width="40" height="30" as="geometry">
            <mxRectangle width="40" height="30" as="alternateBounds" />
          </mxGeometry>
        </mxCell>
        <mxCell id="UlpgFMHiXkAELkj7wbDn-79" value="Value 2" style="shape=partialRectangle;html=1;whiteSpace=wrap;connectable=0;fillColor=none;top=0;left=0;bottom=0;right=0;align=left;spacingLeft=6;overflow=hidden;strokeColor=#0F8B8D;fontSize=16;fontColor=#143642;labelBackgroundColor=none;" vertex="1" parent="UlpgFMHiXkAELkj7wbDn-77">
          <mxGeometry x="40" width="140" height="30" as="geometry">
            <mxRectangle width="140" height="30" as="alternateBounds" />
          </mxGeometry>
        </mxCell>
        <mxCell id="UlpgFMHiXkAELkj7wbDn-80" value="" style="shape=tableRow;horizontal=0;startSize=0;swimlaneHead=0;swimlaneBody=0;top=0;left=0;bottom=0;right=0;collapsible=0;dropTarget=0;fillColor=none;points=[[0,0.5],[1,0.5]];portConstraint=eastwest;strokeColor=#0F8B8D;fontSize=16;fontColor=#143642;labelBackgroundColor=none;" vertex="1" parent="UlpgFMHiXkAELkj7wbDn-73">
          <mxGeometry y="90" width="180" height="30" as="geometry" />
        </mxCell>
        <mxCell id="UlpgFMHiXkAELkj7wbDn-81" value="3" style="shape=partialRectangle;html=1;whiteSpace=wrap;connectable=0;fillColor=none;top=0;left=0;bottom=0;right=0;overflow=hidden;strokeColor=#0F8B8D;fontSize=16;fontColor=#143642;labelBackgroundColor=none;" vertex="1" parent="UlpgFMHiXkAELkj7wbDn-80">
          <mxGeometry width="40" height="30" as="geometry">
            <mxRectangle width="40" height="30" as="alternateBounds" />
          </mxGeometry>
        </mxCell>
        <mxCell id="UlpgFMHiXkAELkj7wbDn-82" value="Value 3" style="shape=partialRectangle;html=1;whiteSpace=wrap;connectable=0;fillColor=none;top=0;left=0;bottom=0;right=0;align=left;spacingLeft=6;overflow=hidden;strokeColor=#0F8B8D;fontSize=16;fontColor=#143642;labelBackgroundColor=none;" vertex="1" parent="UlpgFMHiXkAELkj7wbDn-80">
          <mxGeometry x="40" width="140" height="30" as="geometry">
            <mxRectangle width="140" height="30" as="alternateBounds" />
          </mxGeometry>
        </mxCell>
        <mxCell id="UlpgFMHiXkAELkj7wbDn-83" value="Goga Bitadze" style="shape=table;startSize=30;container=1;collapsible=0;childLayout=tableLayout;fixedRows=1;rowLines=0;fontStyle=0;strokeColor=#0F8B8D;fontSize=16;fontColor=#FFFFFF;fillColor=#0000A8;labelBackgroundColor=none;" vertex="1" parent="1">
          <mxGeometry x="310" y="260" width="180" height="120" as="geometry" />
        </mxCell>
        <mxCell id="UlpgFMHiXkAELkj7wbDn-84" value="" style="shape=tableRow;horizontal=0;startSize=0;swimlaneHead=0;swimlaneBody=0;top=0;left=0;bottom=0;right=0;collapsible=0;dropTarget=0;fillColor=none;points=[[0,0.5],[1,0.5]];portConstraint=eastwest;strokeColor=#0F8B8D;fontSize=16;fontColor=#143642;labelBackgroundColor=none;" vertex="1" parent="UlpgFMHiXkAELkj7wbDn-83">
          <mxGeometry y="30" width="180" height="30" as="geometry" />
        </mxCell>
        <mxCell id="UlpgFMHiXkAELkj7wbDn-85" value="1" style="shape=partialRectangle;html=1;whiteSpace=wrap;connectable=0;fillColor=none;top=0;left=0;bottom=0;right=0;overflow=hidden;pointerEvents=1;strokeColor=#0F8B8D;fontSize=16;fontColor=#143642;labelBackgroundColor=none;" vertex="1" parent="UlpgFMHiXkAELkj7wbDn-84">
          <mxGeometry width="40" height="30" as="geometry">
            <mxRectangle width="40" height="30" as="alternateBounds" />
          </mxGeometry>
        </mxCell>
        <mxCell id="UlpgFMHiXkAELkj7wbDn-86" value="Value 1" style="shape=partialRectangle;html=1;whiteSpace=wrap;connectable=0;fillColor=none;top=0;left=0;bottom=0;right=0;align=left;spacingLeft=6;overflow=hidden;strokeColor=#0F8B8D;fontSize=16;fontColor=#143642;labelBackgroundColor=none;" vertex="1" parent="UlpgFMHiXkAELkj7wbDn-84">
          <mxGeometry x="40" width="140" height="30" as="geometry">
            <mxRectangle width="140" height="30" as="alternateBounds" />
          </mxGeometry>
        </mxCell>
        <mxCell id="UlpgFMHiXkAELkj7wbDn-87" value="" style="shape=tableRow;horizontal=0;startSize=0;swimlaneHead=0;swimlaneBody=0;top=0;left=0;bottom=0;right=0;collapsible=0;dropTarget=0;fillColor=none;points=[[0,0.5],[1,0.5]];portConstraint=eastwest;strokeColor=#0F8B8D;fontSize=16;fontColor=#143642;labelBackgroundColor=none;" vertex="1" parent="UlpgFMHiXkAELkj7wbDn-83">
          <mxGeometry y="60" width="180" height="30" as="geometry" />
        </mxCell>
        <mxCell id="UlpgFMHiXkAELkj7wbDn-88" value="2" style="shape=partialRectangle;html=1;whiteSpace=wrap;connectable=0;fillColor=none;top=0;left=0;bottom=0;right=0;overflow=hidden;strokeColor=#0F8B8D;fontSize=16;fontColor=#143642;labelBackgroundColor=none;" vertex="1" parent="UlpgFMHiXkAELkj7wbDn-87">
          <mxGeometry width="40" height="30" as="geometry">
            <mxRectangle width="40" height="30" as="alternateBounds" />
          </mxGeometry>
        </mxCell>
        <mxCell id="UlpgFMHiXkAELkj7wbDn-89" value="Value 2" style="shape=partialRectangle;html=1;whiteSpace=wrap;connectable=0;fillColor=none;top=0;left=0;bottom=0;right=0;align=left;spacingLeft=6;overflow=hidden;strokeColor=#0F8B8D;fontSize=16;fontColor=#143642;labelBackgroundColor=none;" vertex="1" parent="UlpgFMHiXkAELkj7wbDn-87">
          <mxGeometry x="40" width="140" height="30" as="geometry">
            <mxRectangle width="140" height="30" as="alternateBounds" />
          </mxGeometry>
        </mxCell>
        <mxCell id="UlpgFMHiXkAELkj7wbDn-90" value="" style="shape=tableRow;horizontal=0;startSize=0;swimlaneHead=0;swimlaneBody=0;top=0;left=0;bottom=0;right=0;collapsible=0;dropTarget=0;fillColor=none;points=[[0,0.5],[1,0.5]];portConstraint=eastwest;strokeColor=#0F8B8D;fontSize=16;fontColor=#143642;labelBackgroundColor=none;" vertex="1" parent="UlpgFMHiXkAELkj7wbDn-83">
          <mxGeometry y="90" width="180" height="30" as="geometry" />
        </mxCell>
        <mxCell id="UlpgFMHiXkAELkj7wbDn-91" value="3" style="shape=partialRectangle;html=1;whiteSpace=wrap;connectable=0;fillColor=none;top=0;left=0;bottom=0;right=0;overflow=hidden;strokeColor=#0F8B8D;fontSize=16;fontColor=#143642;labelBackgroundColor=none;" vertex="1" parent="UlpgFMHiXkAELkj7wbDn-90">
          <mxGeometry width="40" height="30" as="geometry">
            <mxRectangle width="40" height="30" as="alternateBounds" />
          </mxGeometry>
        </mxCell>
        <mxCell id="UlpgFMHiXkAELkj7wbDn-92" value="Value 3" style="shape=partialRectangle;html=1;whiteSpace=wrap;connectable=0;fillColor=none;top=0;left=0;bottom=0;right=0;align=left;spacingLeft=6;overflow=hidden;strokeColor=#0F8B8D;fontSize=16;fontColor=#143642;labelBackgroundColor=none;" vertex="1" parent="UlpgFMHiXkAELkj7wbDn-90">
          <mxGeometry x="40" width="140" height="30" as="geometry">
            <mxRectangle width="140" height="30" as="alternateBounds" />
          </mxGeometry>
        </mxCell>
        <mxCell id="UlpgFMHiXkAELkj7wbDn-93" value="Kentavious Caldwell-Pope" style="shape=table;startSize=30;container=1;collapsible=0;childLayout=tableLayout;fixedRows=1;rowLines=0;fontStyle=0;strokeColor=#0F8B8D;fontSize=16;fontColor=#FFFFFF;fillColor=#0000A8;labelBackgroundColor=none;" vertex="1" parent="1">
          <mxGeometry x="540" y="260" width="210" height="120" as="geometry" />
        </mxCell>
        <mxCell id="UlpgFMHiXkAELkj7wbDn-94" value="" style="shape=tableRow;horizontal=0;startSize=0;swimlaneHead=0;swimlaneBody=0;top=0;left=0;bottom=0;right=0;collapsible=0;dropTarget=0;fillColor=none;points=[[0,0.5],[1,0.5]];portConstraint=eastwest;strokeColor=#0F8B8D;fontSize=16;fontColor=#143642;labelBackgroundColor=none;" vertex="1" parent="UlpgFMHiXkAELkj7wbDn-93">
          <mxGeometry y="30" width="210" height="30" as="geometry" />
        </mxCell>
        <mxCell id="UlpgFMHiXkAELkj7wbDn-95" value="1" style="shape=partialRectangle;html=1;whiteSpace=wrap;connectable=0;fillColor=none;top=0;left=0;bottom=0;right=0;overflow=hidden;pointerEvents=1;strokeColor=#0F8B8D;fontSize=16;fontColor=#143642;labelBackgroundColor=none;" vertex="1" parent="UlpgFMHiXkAELkj7wbDn-94">
          <mxGeometry width="47" height="30" as="geometry">
            <mxRectangle width="47" height="30" as="alternateBounds" />
          </mxGeometry>
        </mxCell>
        <mxCell id="UlpgFMHiXkAELkj7wbDn-96" value="Value 1" style="shape=partialRectangle;html=1;whiteSpace=wrap;connectable=0;fillColor=none;top=0;left=0;bottom=0;right=0;align=left;spacingLeft=6;overflow=hidden;strokeColor=#0F8B8D;fontSize=16;fontColor=#143642;labelBackgroundColor=none;" vertex="1" parent="UlpgFMHiXkAELkj7wbDn-94">
          <mxGeometry x="47" width="163" height="30" as="geometry">
            <mxRectangle width="163" height="30" as="alternateBounds" />
          </mxGeometry>
        </mxCell>
        <mxCell id="UlpgFMHiXkAELkj7wbDn-97" value="" style="shape=tableRow;horizontal=0;startSize=0;swimlaneHead=0;swimlaneBody=0;top=0;left=0;bottom=0;right=0;collapsible=0;dropTarget=0;fillColor=none;points=[[0,0.5],[1,0.5]];portConstraint=eastwest;strokeColor=#0F8B8D;fontSize=16;fontColor=#143642;labelBackgroundColor=none;" vertex="1" parent="UlpgFMHiXkAELkj7wbDn-93">
          <mxGeometry y="60" width="210" height="30" as="geometry" />
        </mxCell>
        <mxCell id="UlpgFMHiXkAELkj7wbDn-98" value="2" style="shape=partialRectangle;html=1;whiteSpace=wrap;connectable=0;fillColor=none;top=0;left=0;bottom=0;right=0;overflow=hidden;strokeColor=#0F8B8D;fontSize=16;fontColor=#143642;labelBackgroundColor=none;" vertex="1" parent="UlpgFMHiXkAELkj7wbDn-97">
          <mxGeometry width="47" height="30" as="geometry">
            <mxRectangle width="47" height="30" as="alternateBounds" />
          </mxGeometry>
        </mxCell>
        <mxCell id="UlpgFMHiXkAELkj7wbDn-99" value="Value 2" style="shape=partialRectangle;html=1;whiteSpace=wrap;connectable=0;fillColor=none;top=0;left=0;bottom=0;right=0;align=left;spacingLeft=6;overflow=hidden;strokeColor=#0F8B8D;fontSize=16;fontColor=#143642;labelBackgroundColor=none;" vertex="1" parent="UlpgFMHiXkAELkj7wbDn-97">
          <mxGeometry x="47" width="163" height="30" as="geometry">
            <mxRectangle width="163" height="30" as="alternateBounds" />
          </mxGeometry>
        </mxCell>
        <mxCell id="UlpgFMHiXkAELkj7wbDn-100" value="" style="shape=tableRow;horizontal=0;startSize=0;swimlaneHead=0;swimlaneBody=0;top=0;left=0;bottom=0;right=0;collapsible=0;dropTarget=0;fillColor=none;points=[[0,0.5],[1,0.5]];portConstraint=eastwest;strokeColor=#0F8B8D;fontSize=16;fontColor=#143642;labelBackgroundColor=none;" vertex="1" parent="UlpgFMHiXkAELkj7wbDn-93">
          <mxGeometry y="90" width="210" height="30" as="geometry" />
        </mxCell>
        <mxCell id="UlpgFMHiXkAELkj7wbDn-101" value="3" style="shape=partialRectangle;html=1;whiteSpace=wrap;connectable=0;fillColor=none;top=0;left=0;bottom=0;right=0;overflow=hidden;strokeColor=#0F8B8D;fontSize=16;fontColor=#143642;labelBackgroundColor=none;" vertex="1" parent="UlpgFMHiXkAELkj7wbDn-100">
          <mxGeometry width="47" height="30" as="geometry">
            <mxRectangle width="47" height="30" as="alternateBounds" />
          </mxGeometry>
        </mxCell>
        <mxCell id="UlpgFMHiXkAELkj7wbDn-102" value="Value 3" style="shape=partialRectangle;html=1;whiteSpace=wrap;connectable=0;fillColor=none;top=0;left=0;bottom=0;right=0;align=left;spacingLeft=6;overflow=hidden;strokeColor=#0F8B8D;fontSize=16;fontColor=#143642;labelBackgroundColor=none;" vertex="1" parent="UlpgFMHiXkAELkj7wbDn-100">
          <mxGeometry x="47" width="163" height="30" as="geometry">
            <mxRectangle width="163" height="30" as="alternateBounds" />
          </mxGeometry>
        </mxCell>
        <mxCell id="UlpgFMHiXkAELkj7wbDn-103" value="Jalen Suggs" style="shape=table;startSize=30;container=1;collapsible=0;childLayout=tableLayout;fixedRows=1;rowLines=0;fontStyle=0;strokeColor=#0F8B8D;fontSize=16;fontColor=#FFFFFF;fillColor=#0000A8;labelBackgroundColor=none;" vertex="1" parent="1">
          <mxGeometry x="550" y="60" width="180" height="120" as="geometry" />
        </mxCell>
        <mxCell id="UlpgFMHiXkAELkj7wbDn-104" value="" style="shape=tableRow;horizontal=0;startSize=0;swimlaneHead=0;swimlaneBody=0;top=0;left=0;bottom=0;right=0;collapsible=0;dropTarget=0;fillColor=none;points=[[0,0.5],[1,0.5]];portConstraint=eastwest;strokeColor=#0F8B8D;fontSize=16;fontColor=#143642;labelBackgroundColor=none;" vertex="1" parent="UlpgFMHiXkAELkj7wbDn-103">
          <mxGeometry y="30" width="180" height="30" as="geometry" />
        </mxCell>
        <mxCell id="UlpgFMHiXkAELkj7wbDn-105" value="1" style="shape=partialRectangle;html=1;whiteSpace=wrap;connectable=0;fillColor=none;top=0;left=0;bottom=0;right=0;overflow=hidden;pointerEvents=1;strokeColor=#0F8B8D;fontSize=16;fontColor=#143642;labelBackgroundColor=none;" vertex="1" parent="UlpgFMHiXkAELkj7wbDn-104">
          <mxGeometry width="40" height="30" as="geometry">
            <mxRectangle width="40" height="30" as="alternateBounds" />
          </mxGeometry>
        </mxCell>
        <mxCell id="UlpgFMHiXkAELkj7wbDn-106" value="Value 1" style="shape=partialRectangle;html=1;whiteSpace=wrap;connectable=0;fillColor=none;top=0;left=0;bottom=0;right=0;align=left;spacingLeft=6;overflow=hidden;strokeColor=#0F8B8D;fontSize=16;fontColor=#143642;labelBackgroundColor=none;" vertex="1" parent="UlpgFMHiXkAELkj7wbDn-104">
          <mxGeometry x="40" width="140" height="30" as="geometry">
            <mxRectangle width="140" height="30" as="alternateBounds" />
          </mxGeometry>
        </mxCell>
        <mxCell id="UlpgFMHiXkAELkj7wbDn-107" value="" style="shape=tableRow;horizontal=0;startSize=0;swimlaneHead=0;swimlaneBody=0;top=0;left=0;bottom=0;right=0;collapsible=0;dropTarget=0;fillColor=none;points=[[0,0.5],[1,0.5]];portConstraint=eastwest;strokeColor=#0F8B8D;fontSize=16;fontColor=#143642;labelBackgroundColor=none;" vertex="1" parent="UlpgFMHiXkAELkj7wbDn-103">
          <mxGeometry y="60" width="180" height="30" as="geometry" />
        </mxCell>
        <mxCell id="UlpgFMHiXkAELkj7wbDn-108" value="2" style="shape=partialRectangle;html=1;whiteSpace=wrap;connectable=0;fillColor=none;top=0;left=0;bottom=0;right=0;overflow=hidden;strokeColor=#0F8B8D;fontSize=16;fontColor=#143642;labelBackgroundColor=none;" vertex="1" parent="UlpgFMHiXkAELkj7wbDn-107">
          <mxGeometry width="40" height="30" as="geometry">
            <mxRectangle width="40" height="30" as="alternateBounds" />
          </mxGeometry>
        </mxCell>
        <mxCell id="UlpgFMHiXkAELkj7wbDn-109" value="Value 2" style="shape=partialRectangle;html=1;whiteSpace=wrap;connectable=0;fillColor=none;top=0;left=0;bottom=0;right=0;align=left;spacingLeft=6;overflow=hidden;strokeColor=#0F8B8D;fontSize=16;fontColor=#143642;labelBackgroundColor=none;" vertex="1" parent="UlpgFMHiXkAELkj7wbDn-107">
          <mxGeometry x="40" width="140" height="30" as="geometry">
            <mxRectangle width="140" height="30" as="alternateBounds" />
          </mxGeometry>
        </mxCell>
        <mxCell id="UlpgFMHiXkAELkj7wbDn-110" value="" style="shape=tableRow;horizontal=0;startSize=0;swimlaneHead=0;swimlaneBody=0;top=0;left=0;bottom=0;right=0;collapsible=0;dropTarget=0;fillColor=none;points=[[0,0.5],[1,0.5]];portConstraint=eastwest;strokeColor=#0F8B8D;fontSize=16;fontColor=#143642;labelBackgroundColor=none;" vertex="1" parent="UlpgFMHiXkAELkj7wbDn-103">
          <mxGeometry y="90" width="180" height="30" as="geometry" />
        </mxCell>
        <mxCell id="UlpgFMHiXkAELkj7wbDn-111" value="3" style="shape=partialRectangle;html=1;whiteSpace=wrap;connectable=0;fillColor=none;top=0;left=0;bottom=0;right=0;overflow=hidden;strokeColor=#0F8B8D;fontSize=16;fontColor=#143642;labelBackgroundColor=none;" vertex="1" parent="UlpgFMHiXkAELkj7wbDn-110">
          <mxGeometry width="40" height="30" as="geometry">
            <mxRectangle width="40" height="30" as="alternateBounds" />
          </mxGeometry>
        </mxCell>
        <mxCell id="UlpgFMHiXkAELkj7wbDn-112" value="Value 3" style="shape=partialRectangle;html=1;whiteSpace=wrap;connectable=0;fillColor=none;top=0;left=0;bottom=0;right=0;align=left;spacingLeft=6;overflow=hidden;strokeColor=#0F8B8D;fontSize=16;fontColor=#143642;labelBackgroundColor=none;" vertex="1" parent="UlpgFMHiXkAELkj7wbDn-110">
          <mxGeometry x="40" width="140" height="30" as="geometry">
            <mxRectangle width="140" height="30" as="alternateBounds" />
          </mxGeometry>
        </mxCell>
      </root>
    </mxGraphModel>
  </diagram>
</mxfile>
